<?xml version="1.0" standalone="no"?>
<!DOCTYPE svg PUBLIC "-//W3C//DTD SVG 20010904//EN"
 "http://www.w3.org/TR/2001/REC-SVG-20010904/DTD/svg10.dtd">
<svg version="1.0" xmlns="http://www.w3.org/2000/svg"
 width="500.000000pt" height="500.000000pt" viewBox="0 0 500.000000 500.000000"
 preserveAspectRatio="xMidYMid meet">
<metadata>
Created by potrace 1.14, written by Peter Selinger 2001-2017
</metadata>
<g transform="translate(0.000000,500.000000) scale(0.100000,-0.100000)"
fill="#000000" stroke="none">
<path d="M2236 3698 c-83 -23 -156 -127 -156 -222 0 -32 3 -36 25 -36 25 0 25
-1 25 -85 l0 -85 -175 0 -175 0 -221 -137 c-122 -76 -234 -149 -249 -163 -17
-16 -34 -48 -44 -84 l-17 -59 44 -45 44 -44 43 22 44 22 44 -21 c24 -12 46
-21 47 -19 1 2 12 32 24 68 l21 65 134 88 133 88 84 -3 84 -3 42 -80 42 -80 1
-240 c1 -303 10 -330 126 -375 l49 -18 3 -216 2 -216 -189 0 c-189 0 -190 0
-220 -26 -42 -35 -43 -84 -2 -125 l30 -29 823 2 823 3 60 25 c48 20 64 32 78
62 21 43 15 76 -19 113 -29 32 -83 33 -150 4 -32 -15 -77 -23 -136 -27 -86 -5
-87 -4 -93 20 -4 14 -5 42 -3 64 3 38 1 40 -59 81 l-61 42 -94 283 c-86 260
-96 286 -133 324 -71 75 -136 78 -292 15 l-53 -21 0 168 0 167 68 43 c93 58
139 58 294 -2 l113 -45 3 -45 3 -46 43 0 c36 0 48 -6 81 -40 21 -22 44 -40 50
-39 5 0 38 38 72 85 l62 84 -42 65 c-49 75 -61 82 -308 177 l-164 63 -185 5
-185 5 0 80 c0 75 1 80 23 83 19 3 22 9 22 52 0 146 -140 248 -284 208z m89
-408 c15 -16 31 -20 88 -20 l69 0 -7 -27 c-20 -83 -72 -135 -147 -148 -90 -17
-198 68 -198 155 0 18 6 20 63 20 51 0 68 4 82 20 10 11 21 20 25 20 4 0 15
-9 25 -20z m487 -1090 c66 -173 66 -176 67 -278 l1 -103 -137 3 -138 3 -3 66
c-3 62 -5 68 -42 104 l-40 39 0 132 0 132 98 40 c53 22 104 40 112 39 9 -2 39
-66 82 -177z"/>
<path d="M993 1481 c-53 -25 -77 -68 -70 -128 6 -54 37 -90 116 -132 74 -39
95 -63 87 -95 -7 -29 -41 -42 -81 -32 -17 4 -27 16 -33 39 -7 29 -12 32 -50
35 l-42 3 0 -39 c0 -71 63 -122 150 -122 87 0 150 55 150 131 0 54 -35 96
-120 144 -84 48 -96 61 -86 98 14 57 100 38 113 -24 5 -28 8 -30 47 -27 41 3
41 3 39 42 -5 71 -50 111 -135 121 -30 4 -55 0 -85 -14z m155 -21 c34 -21 52
-54 52 -96 0 -20 -5 -24 -30 -24 -24 0 -30 4 -30 22 0 33 -38 68 -74 68 -39 0
-52 -9 -64 -40 -14 -38 2 -66 55 -96 101 -57 125 -76 140 -112 29 -69 -15
-143 -93 -158 -82 -15 -160 29 -171 99 -5 36 -5 37 24 37 24 0 31 -6 42 -35
14 -40 58 -58 101 -43 30 11 40 25 40 59 0 30 -28 58 -86 87 -58 29 -99 66
-114 102 -19 45 1 105 43 130 43 27 121 26 165 0z"/>
<path d="M1282 1492 c-9 -7 -12 -62 -10 -243 l3 -234 42 -3 42 -3 3 143 3 143
70 -140 70 -140 41 -3 41 -3 6 143 c10 218 9 322 -5 336 -13 13 -47 16 -72 6
-13 -5 -16 -28 -17 -143 l0 -136 -65 135 c-35 74 -70 138 -77 142 -16 10 -59
10 -75 0z m145 -166 c42 -85 81 -152 85 -150 4 3 8 72 8 155 l0 149 30 0 30 0
0 -225 0 -225 -35 0 -35 0 -71 150 c-40 83 -76 150 -81 150 -4 0 -8 -67 -8
-150 l0 -150 -30 0 -30 0 0 225 0 225 30 0 c29 0 33 -7 107 -154z"/>
<path d="M1745 1487 c-79 -36 -103 -108 -92 -284 6 -108 26 -151 84 -178 46
-22 133 -16 171 12 47 35 57 67 60 206 3 112 1 132 -17 170 -11 23 -34 50 -51
60 -40 24 -117 31 -155 14z m135 -20 c13 -7 35 -28 47 -46 21 -31 23 -45 23
-163 0 -153 -11 -188 -71 -218 -48 -25 -94 -25 -138 -2 -58 31 -71 69 -71 210
0 141 12 181 62 212 38 23 110 26 148 7z"/>
<path d="M1751 1404 c-19 -24 -21 -40 -21 -149 0 -107 3 -125 20 -148 35 -44
93 -43 127 2 8 11 12 59 13 142 0 113 -2 129 -21 153 -16 20 -29 26 -59 26
-30 0 -43 -6 -59 -26z m107 -12 c8 -11 12 -56 12 -141 0 -138 -9 -161 -61
-161 -49 0 -59 29 -59 165 0 66 4 125 8 132 10 16 54 32 72 25 8 -3 21 -12 28
-20z"/>
<path d="M2018 1493 c-10 -2 -18 -7 -18 -10 0 -6 88 -385 101 -436 10 -37 11
-38 52 -35 l42 3 25 128 c13 70 27 127 30 127 3 0 17 -57 31 -127 l24 -128 45
0 c52 0 40 -29 105 264 34 158 42 207 32 213 -19 12 -63 9 -75 -5 -6 -7 -20
-65 -33 -130 -12 -65 -25 -115 -29 -110 -5 4 -18 58 -30 118 -12 61 -27 116
-32 123 -13 16 -63 16 -76 -1 -6 -7 -21 -68 -35 -137 l-24 -125 -16 75 c-9 41
-22 100 -28 130 -14 69 -30 79 -91 63z m66 -30 c2 -10 17 -78 32 -151 16 -80
32 -131 38 -129 6 2 19 46 28 98 38 205 36 199 68 199 27 0 29 -4 40 -57 6
-32 18 -83 25 -113 7 -30 16 -72 19 -92 8 -42 23 -50 30 -15 25 116 56 268 56
272 0 3 14 5 30 5 17 0 30 -2 30 -4 0 -7 -90 -410 -96 -428 -3 -12 -15 -18
-34 -18 -26 0 -29 4 -38 48 -44 212 -56 262 -63 262 -8 0 -12 -15 -39 -160
-28 -154 -27 -150 -59 -150 -28 0 -29 2 -56 118 -15 64 -38 162 -51 216 -13
54 -24 103 -24 107 0 18 59 9 64 -8z"/>
<path d="M2527 1493 c-4 -3 -7 -24 -7 -45 l0 -38 55 0 55 0 0 -201 0 -200 43
3 42 3 3 197 2 197 58 3 c54 3 57 4 60 31 6 52 -7 57 -163 57 -78 0 -145 -3
-148 -7z m293 -38 c0 -22 -4 -24 -57 -27 l-58 -3 -3 -197 -2 -198 -25 0 -25 0
-2 123 c-1 67 -1 146 1 176 4 93 -1 101 -64 101 -47 0 -55 3 -55 18 0 10 3 22
7 25 3 4 69 7 145 7 l138 0 0 -25z"/>
<path d="M2889 1484 c-6 -7 -8 -102 -7 -240 l3 -229 45 0 45 0 3 98 c3 94 3
97 26 97 20 0 28 -12 56 -87 18 -49 37 -94 43 -100 14 -19 87 -17 87 2 0 8
-16 56 -36 106 l-37 91 26 21 c35 30 47 58 47 109 0 51 -28 101 -67 121 -37
19 -220 28 -234 11z m221 -19 c39 -20 60 -63 60 -121 0 -39 -5 -51 -35 -81
-19 -19 -35 -38 -35 -42 0 -4 16 -44 35 -90 19 -45 35 -87 35 -92 0 -5 -13 -9
-29 -9 -22 0 -31 6 -37 23 -4 12 -20 57 -36 100 l-30 78 -37 -3 -36 -3 -3 -97
-3 -98 -29 0 -30 0 0 225 0 225 90 0 c62 0 100 -5 120 -15z"/>
<path d="M2965 1418 c-3 -8 -5 -44 -3 -79 l3 -64 34 -3 c74 -7 111 19 111 77
0 50 -26 73 -90 79 -38 3 -51 1 -55 -10z m123 -40 c11 -23 11 -33 0 -55 -11
-24 -20 -28 -61 -31 l-47 -3 0 61 0 61 47 -3 c41 -3 50 -7 61 -30z"/>
<path d="M3252 1492 c-9 -7 -12 -62 -10 -243 l3 -234 41 -3 41 -3 6 83 c12
144 8 383 -5 396 -14 14 -57 16 -76 4z m68 -237 l0 -225 -30 0 -30 0 0 225 0
225 30 0 30 0 0 -225z"/>
<path d="M3470 1482 c-22 -11 -44 -35 -58 -63 -21 -41 -23 -54 -20 -174 4
-142 13 -173 61 -209 22 -17 43 -21 97 -21 59 0 72 3 95 25 34 32 55 72 55
105 0 23 -3 25 -45 25 -36 0 -45 -3 -45 -18 0 -52 -62 -80 -106 -48 -17 13
-19 25 -16 148 3 144 9 161 56 161 34 0 53 -17 61 -54 6 -28 9 -30 48 -27 39
3 42 5 45 33 4 40 -33 95 -78 117 -45 23 -106 23 -150 0z m150 -17 c29 -15 50
-45 64 -92 7 -21 4 -23 -28 -23 -29 0 -36 4 -36 20 0 55 -89 81 -130 38 -18
-20 -20 -35 -20 -153 0 -118 2 -133 20 -153 44 -47 130 -20 130 40 0 16 6 19
33 16 28 -3 32 -6 29 -28 -16 -115 -191 -148 -252 -48 -17 29 -20 50 -20 166
0 152 11 190 63 216 41 20 110 20 147 1z"/>
<path d="M4183 1481 c-53 -25 -77 -68 -70 -128 6 -54 37 -90 116 -132 74 -39
95 -63 87 -95 -7 -29 -41 -42 -81 -32 -17 4 -27 16 -33 39 -7 29 -12 32 -50
35 l-42 3 0 -39 c0 -71 63 -122 150 -122 87 0 150 55 150 131 0 54 -35 96
-120 144 -84 48 -96 61 -86 98 14 57 100 38 113 -24 5 -28 8 -30 47 -27 41 3
41 3 39 42 -5 71 -50 111 -135 121 -30 4 -55 0 -85 -14z m155 -21 c34 -21 52
-54 52 -96 0 -20 -5 -24 -30 -24 -24 0 -30 4 -30 22 0 33 -38 68 -74 68 -39 0
-52 -9 -64 -40 -14 -38 2 -66 55 -96 101 -57 125 -76 140 -112 29 -69 -15
-143 -93 -158 -82 -15 -160 29 -171 99 -5 36 -5 37 24 37 24 0 31 -6 42 -35
14 -40 58 -58 101 -43 30 11 40 25 40 59 0 30 -28 58 -86 87 -58 29 -99 66
-114 102 -19 45 1 105 43 130 43 27 121 26 165 0z"/>
<path d="M3762 1253 l3 -238 40 0 40 0 3 80 c2 56 8 85 19 98 16 17 20 12 71
-83 l54 -100 44 0 c26 0 44 5 44 11 0 7 -30 69 -67 140 l-67 127 62 90 c34 50
62 95 62 101 0 6 -19 11 -45 11 l-44 0 -63 -91 -63 -91 -3 91 -3 91 -45 0 -44
0 2 -237z m78 123 c6 -113 -1 -115 94 22 50 71 61 82 87 82 16 0 29 -4 29 -8
0 -5 -27 -48 -60 -96 l-61 -87 66 -124 c36 -68 65 -126 65 -129 0 -4 -15 -6
-32 -6 -31 0 -35 5 -75 83 -23 45 -49 91 -57 102 -14 19 -14 19 -35 -5 -17
-20 -20 -39 -21 -102 l0 -78 -35 0 -35 0 0 226 0 225 33 -3 32 -3 5 -99z"/>
</g>
</svg>
